<?xml version="1.0" standalone="no"?>
<!DOCTYPE svg PUBLIC "-//W3C//DTD SVG 20010904//EN"
 "http://www.w3.org/TR/2001/REC-SVG-20010904/DTD/svg10.dtd">
<svg version="1.0" xmlns="http://www.w3.org/2000/svg"
 width="35.000000pt" height="40.000000pt" viewBox="0 0 35.000000 40.000000"
 preserveAspectRatio="xMidYMid meet">

<g transform="translate(0.000000,40.000000) scale(0.100000,-0.100000)"
fill="#000000" stroke="none">
<path d="M103 376 l-28 -25 -23 22 c-17 16 -25 18 -34 9 -10 -10 22 -47 145
-169 123 -124 159 -155 169 -145 9 9 6 18 -14 39 -19 21 -24 33 -18 48 12 27
12 93 1 99 -5 3 -11 -17 -15 -44 -4 -28 -10 -50 -14 -50 -23 0 -32 30 -32 105
-1 83 -8 103 -47 123 -33 18 -59 14 -90 -12z"/>
<path d="M6 253 c-11 -11 -7 -62 8 -96 15 -38 66 -84 101 -93 16 -4 25 -14 27
-30 4 -32 22 -32 26 0 2 18 11 26 33 31 17 4 29 11 27 17 -4 10 -8 11 -54 2
-71 -13 -144 52 -144 128 0 36 -11 54 -24 41z"/>
<path d="M70 211 c0 -41 46 -91 84 -91 14 0 26 4 26 8 0 4 -25 32 -55 62 l-55
54 0 -33z"/>
</g>
</svg>
