<?xml version="1.0" standalone="no"?>
<!DOCTYPE svg PUBLIC "-//W3C//DTD SVG 20010904//EN"
 "http://www.w3.org/TR/2001/REC-SVG-20010904/DTD/svg10.dtd">
<svg version="1.0" xmlns="http://www.w3.org/2000/svg"
 width="48.000000pt" height="36.000000pt" viewBox="0 0 48.000000 36.000000"
 preserveAspectRatio="xMidYMid meet">

<g transform="translate(0.000000,36.000000) scale(0.100000,-0.100000)"
fill="#000000" stroke="none">
<path d="M165 310 c-44 -33 -78 -50 -96 -50 -40 0 -69 -32 -69 -75 0 -46 29
-75 74 -75 50 0 53 -17 11 -60 -25 -26 -33 -40 -25 -45 14 -8 350 321 350 342
0 22 -12 15 -61 -33 l-46 -46 -7 36 c-6 32 -29 56 -54 56 -5 0 -40 -22 -77
-50z"/>
<path d="M417 294 c-3 -3 3 -20 14 -37 34 -57 22 -127 -32 -183 -21 -22 -27
-34 -19 -39 16 -10 59 32 81 80 24 51 23 89 -1 143 -18 40 -29 49 -43 36z"/>
<path d="M368 245 c-3 -3 -4 -24 -1 -46 5 -31 1 -47 -15 -69 -20 -26 -20 -40
0 -40 15 0 48 65 48 96 0 31 -21 70 -32 59z"/>
<path d="M229 112 c-27 -27 -49 -53 -49 -58 0 -6 14 -18 30 -27 55 -33 90 -1
90 83 0 21 -5 42 -11 45 -5 4 -32 -15 -60 -43z"/>
</g>
</svg>
